<svg version="1.1" id="Layer_1" xmlns="http://www.w3.org/2000/svg" xmlns:xlink="http://www.w3.org/1999/xlink" x="0px" y="0px"
	 width="100%" viewBox="0 0 3768 1432" enable-background="new 0 0 3768 1432" xml:space="preserve">
<path fill="#000000" opacity="1.000000" stroke="none" 
	d="
M2614.000000,1434.000000 
	C1742.666626,1434.000000 872.333313,1434.000000 2.000000,1434.000000 
	C2.000000,956.666687 2.000000,479.333344 2.000000,2.000000 
	C1258.000000,2.000000 2514.000000,2.000000 3770.000000,2.000000 
	C3770.000000,479.333344 3770.000000,956.666687 3770.000000,1434.000000 
	C3385.000000,1434.000000 3000.000000,1434.000000 2614.000000,1434.000000 
M1131.138184,1030.332153 
	C1163.375244,1030.332153 1195.612305,1030.332153 1228.608154,1030.332153 
	C1228.608154,1024.167969 1228.347900,1018.897461 1228.681274,1013.664856 
	C1229.016235,1008.406372 1227.241821,1002.853882 1230.348877,996.710266 
	C1242.514771,1012.693970 1257.352905,1023.684570 1274.730835,1031.235596 
	C1303.238770,1043.622681 1332.794189,1045.162476 1362.846802,1038.782349 
	C1410.868286,1028.587402 1446.041870,1000.429565 1469.291260,958.145813 
	C1502.869751,897.075623 1507.746338,832.913757 1484.582886,767.124817 
	C1471.656616,730.411621 1449.957886,699.714966 1417.723267,677.173401 
	C1360.983765,637.495605 1281.381836,641.137207 1233.331421,690.450012 
	C1232.372925,691.433716 1231.005737,692.019287 1228.479614,693.675354 
	C1228.479614,593.194519 1228.479614,494.373962 1228.479614,395.213562 
	C1193.145874,395.213562 1158.683594,395.213562 1123.660889,395.213562 
	C1123.660889,399.137299 1123.660767,402.446838 1123.660767,405.756378 
	C1123.660767,610.410400 1123.660767,815.064453 1123.661499,1019.718445 
	C1123.661499,1022.051636 1123.748291,1024.387939 1123.658081,1026.717407 
	C1123.490601,1031.043457 1126.605713,1030.229248 1131.138184,1030.332153 
M1634.739502,394.573792 
	C1604.543335,394.573792 1574.347290,394.573792 1543.865967,394.573792 
	C1543.865967,607.037354 1543.865967,818.145508 1543.865967,1029.670288 
	C1578.716309,1029.670288 1613.114868,1029.670288 1648.332275,1029.670288 
	C1648.332275,1018.568298 1648.332275,1008.100037 1648.332275,995.884277 
	C1650.728760,998.201904 1651.915405,999.157227 1652.873047,1000.303772 
	C1674.663330,1026.393311 1703.430908,1039.438599 1736.489014,1041.669067 
	C1798.162354,1045.830200 1847.448364,1021.772400 1881.317017,970.258789 
	C1919.954590,911.491211 1927.457031,847.134705 1908.441772,779.797791 
	C1898.074341,743.084595 1878.800415,711.526062 1849.592041,686.525818 
	C1791.651245,636.933167 1703.653564,637.486572 1651.824707,691.504639 
	C1651.092529,692.267822 1649.851196,692.542603 1648.122192,693.408752 
	C1648.122192,594.444946 1648.123047,496.516663 1648.107300,398.588379 
	C1648.107300,397.938049 1647.907471,397.281189 1647.748535,396.640411 
	C1647.673706,396.337982 1647.520996,396.026794 1647.319336,395.791595 
	C1647.108032,395.545105 1646.796021,395.384918 1645.697388,394.574005 
	C1643.248779,394.574005 1639.953003,394.574005 1634.739502,394.573792 
M2853.562988,652.317139 
	C2849.344971,653.268616 2845.089355,654.079590 2840.914795,655.193237 
	C2793.503174,667.841187 2760.505859,698.057129 2738.049805,740.600220 
	C2718.622314,777.405518 2711.115967,816.850525 2713.483154,858.337524 
	C2715.727783,897.673645 2726.152832,934.492615 2747.862549,967.521118 
	C2780.469727,1017.128601 2826.166016,1043.419800 2886.236328,1042.064575 
	C2922.454834,1041.247437 2953.710693,1028.328979 2978.519043,1001.237000 
	C2979.637939,1000.015320 2981.267578,999.261536 2983.967041,997.376831 
	C2983.967041,1009.195435 2983.967041,1019.368164 2983.967041,1029.399536 
	C2999.790771,1031.379395 3079.948486,1030.730835 3086.919434,1028.651611 
	C3086.919434,906.878479 3086.919434,785.084839 3086.919434,662.854492 
	C3052.344238,662.854492 3018.288330,662.854492 2983.127197,662.854492 
	C2983.127197,673.561707 2983.127197,683.586182 2983.127197,695.149231 
	C2979.834229,692.035645 2977.895264,690.262512 2976.022461,688.422058 
	C2963.255859,675.876465 2948.443604,666.509521 2931.827637,659.943115 
	C2907.051025,650.151978 2881.499268,647.918884 2853.562988,652.317139 
M1074.174194,681.079712 
	C1074.174194,674.899414 1074.174194,668.719116 1074.174194,662.833984 
	C1038.889038,662.833984 1005.091797,662.833984 970.209473,662.833984 
	C970.209473,673.523071 970.209473,683.577209 970.209473,694.679382 
	C968.255371,693.163757 967.466248,692.674255 966.824524,692.036438 
	C930.087830,655.524658 886.011780,643.595581 835.760315,653.553162 
	C790.239807,662.573303 756.757812,689.020569 732.545166,727.669617 
	C687.855225,799.005371 689.383911,899.156433 736.090271,969.290894 
	C762.744141,1009.314331 799.277649,1034.744263 847.560303,1040.817871 
	C893.443115,1046.589722 934.146484,1035.606689 966.344604,1000.398132 
	C967.136475,999.532227 968.018799,998.748962 970.505615,996.316223 
	C970.505615,1008.798279 970.505615,1019.202698 970.505615,1029.596191 
	C1005.727722,1029.596191 1039.805420,1029.596191 1073.781006,1029.596191 
	C1073.970093,1028.212769 1074.135498,1027.566650 1074.135620,1026.920532 
	C1074.156128,912.298706 1074.165039,797.676880 1074.174194,681.079712 
M2227.144043,1030.331421 
	C2255.993896,1030.331421 2284.843506,1030.331421 2313.645020,1030.331421 
	C2313.645020,906.997192 2313.645020,784.936218 2313.645020,662.520142 
	C2279.401611,662.520142 2245.844971,662.520142 2211.861816,662.520142 
	C2209.254883,672.764709 2212.753662,683.454712 2209.549805,694.238708 
	C2206.379395,691.214294 2204.024902,688.912659 2201.611572,686.674500 
	C2177.450928,664.268372 2148.660400,652.023499 2116.009033,650.452026 
	C2066.077881,648.048950 2023.936890,665.827393 1990.860107,703.430115 
	C1960.803467,737.599304 1945.608765,778.226990 1941.464111,823.232361 
	C1937.033325,871.346436 1945.642944,916.983765 1969.990601,958.797424 
	C2002.050293,1013.855591 2049.615967,1043.563599 2114.431396,1042.043335 
	C2149.145264,1041.229126 2179.342041,1028.817871 2203.763672,1003.560791 
	C2205.505371,1001.759521 2207.215820,999.927673 2208.940674,998.110046 
	C2209.606445,998.306396 2210.272217,998.502747 2210.937988,998.699036 
	C2210.937988,1009.043213 2210.937988,1019.387390 2210.937988,1030.331543 
	C2216.599365,1030.331543 2220.899414,1030.331543 2227.144043,1030.331421 
M2493.129150,820.052979 
	C2446.378174,889.529602 2399.627441,959.006226 2352.537109,1028.987305 
	C2365.783691,1031.261719 2693.857178,1030.739502 2700.835205,1028.689209 
	C2702.545898,1009.511658 2701.856689,949.399353 2699.575928,941.445557 
	C2642.790527,941.445557 2585.729736,941.445557 2528.733643,941.445557 
	C2528.666748,940.193115 2528.513672,939.789856 2528.652344,939.580994 
	C2589.173096,848.649170 2649.714355,757.731018 2710.239258,666.802124 
	C2710.782471,665.986755 2711.153809,665.046082 2711.515381,664.128479 
	C2711.608887,663.891235 2711.391846,663.505127 2711.260254,663.213196 
	C2711.135742,662.937256 2710.935547,662.695374 2710.870361,662.594971 
	C2601.223877,662.594971 2491.679443,662.594971 2381.523926,662.594971 
	C2381.523926,691.853333 2381.523926,720.683533 2381.523926,750.580566 
	C2392.123535,750.580566 2402.374756,750.580627 2412.626221,750.580627 
	C2423.288574,750.580627 2433.951172,750.580627 2444.613525,750.580627 
	C2454.942627,750.580627 2465.271973,750.580627 2475.601074,750.580627 
	C2486.263672,750.580627 2496.926025,750.551697 2507.588623,750.588928 
	C2517.691895,750.624146 2527.795166,750.728821 2539.655518,750.815857 
	C2523.598633,774.704041 2508.761719,796.777588 2493.129150,820.052979 
M396.498169,866.270142 
	C398.836334,887.554199 403.420654,908.270630 411.839966,928.054871 
	C458.093201,1036.743774 573.300842,1064.781372 660.616089,1025.943970 
	C664.789062,1024.087891 668.745178,1021.744080 671.914246,1020.090759 
	C671.914246,986.085999 671.914246,953.355042 671.914246,921.098389 
	C662.286377,928.096069 653.452209,935.867737 643.437744,941.564209 
	C597.380310,967.762573 540.520203,950.748474 515.749756,903.922058 
	C508.153717,889.562439 503.947388,874.192993 502.935303,858.099182 
	C500.777161,823.780090 509.342194,792.659424 532.595154,766.615417 
	C546.397461,751.156494 563.814636,742.063354 584.598877,739.652283 
	C613.076416,736.348816 637.817993,744.821106 659.523376,763.065125 
	C663.499023,766.406799 667.373169,769.869385 672.615967,774.424683 
	C672.615967,769.860657 672.615906,766.940063 672.615906,764.019470 
	C672.616089,736.691101 672.259033,709.354919 672.852234,682.039429 
	C673.012817,674.644653 669.976807,671.363464 664.155823,668.457642 
	C632.538696,652.674927 599.237549,647.216064 564.240051,651.582397 
	C499.441895,659.666748 451.216217,692.427979 419.840363,749.522888 
	C400.204834,785.253784 393.800293,823.984619 396.498169,866.270142 
M3241.683350,986.999756 
	C3241.683350,984.667480 3241.678223,982.335266 3241.684082,980.002991 
	C3241.800781,934.027405 3241.535645,888.046204 3242.205566,842.078613 
	C3242.517334,820.700623 3245.868896,799.624084 3255.716553,780.142334 
	C3263.073730,765.586731 3273.902100,754.522034 3289.344238,749.003784 
	C3312.602295,740.692627 3335.680664,740.962219 3358.052979,752.536926 
	C3360.280273,753.689270 3362.592041,754.678650 3365.326172,755.960022 
	C3369.591064,723.153381 3373.736572,691.266357 3377.947021,658.879822 
	C3322.500977,639.820312 3277.503906,652.473389 3242.458008,699.567932 
	C3242.005127,699.104675 3241.552002,698.641357 3241.098877,698.178101 
	C3241.098877,686.333984 3241.098877,674.489868 3241.098877,662.908386 
	C3205.676514,662.908386 3171.213379,662.908386 3136.835205,662.908386 
	C3134.892822,683.153259 3135.731689,1022.790710 3137.592529,1029.582397 
	C3172.137207,1029.582397 3206.601807,1029.582397 3241.683350,1029.582397 
	C3241.683350,1015.558533 3241.683350,1002.279053 3241.683350,986.999756 
z"/>
<path fill="#FEFEFE" opacity="1.000000" stroke="none" 
	d="
M1130.149170,1030.331787 
	C1126.605713,1030.229248 1123.490601,1031.043457 1123.658081,1026.717407 
	C1123.748291,1024.387939 1123.661499,1022.051636 1123.661499,1019.718445 
	C1123.660767,815.064453 1123.660767,610.410400 1123.660767,405.756378 
	C1123.660767,402.446838 1123.660889,399.137299 1123.660889,395.213562 
	C1158.683594,395.213562 1193.145874,395.213562 1228.479614,395.213562 
	C1228.479614,494.373962 1228.479614,593.194519 1228.479614,693.675354 
	C1231.005737,692.019287 1232.372925,691.433716 1233.331421,690.450012 
	C1281.381836,641.137207 1360.983765,637.495605 1417.723267,677.173401 
	C1449.957886,699.714966 1471.656616,730.411621 1484.582886,767.124817 
	C1507.746338,832.913757 1502.869751,897.075623 1469.291260,958.145813 
	C1446.041870,1000.429565 1410.868286,1028.587402 1362.846802,1038.782349 
	C1332.794189,1045.162476 1303.238770,1043.622681 1274.730835,1031.235596 
	C1257.352905,1023.684570 1242.514771,1012.693970 1230.348877,996.710266 
	C1227.241821,1002.853882 1229.016235,1008.406372 1228.681274,1013.664856 
	C1228.347900,1018.897461 1228.608154,1024.167969 1228.608154,1030.332153 
	C1195.612305,1030.332153 1163.375244,1030.332153 1130.149170,1030.331787 
M1386.245972,881.122864 
	C1398.329590,840.020569 1391.430908,802.424316 1363.215820,770.121216 
	C1331.715088,734.056458 1279.455688,734.347168 1246.989624,769.581116 
	C1208.010254,811.883362 1209.052979,884.066956 1249.235596,925.094543 
	C1281.284790,957.817688 1330.701538,957.218201 1362.018311,923.753479 
	C1373.126587,911.883301 1380.730103,897.999878 1386.245972,881.122864 
z"/>
<path fill="#FCB713" opacity="1.000000" stroke="none" 
	d="
M1635.698486,394.573914 
	C1639.953003,394.574005 1643.248779,394.574005 1645.697388,394.574005 
	C1646.796021,395.384918 1647.108032,395.545105 1647.319336,395.791595 
	C1647.520996,396.026794 1647.673706,396.337982 1647.748535,396.640411 
	C1647.907471,397.281189 1648.107300,397.938049 1648.107300,398.588379 
	C1648.123047,496.516663 1648.122192,594.444946 1648.122192,693.408752 
	C1649.851196,692.542603 1651.092529,692.267822 1651.824707,691.504639 
	C1703.653564,637.486572 1791.651245,636.933167 1849.592041,686.525818 
	C1878.800415,711.526062 1898.074341,743.084595 1908.441772,779.797791 
	C1927.457031,847.134705 1919.954590,911.491211 1881.317017,970.258789 
	C1847.448364,1021.772400 1798.162354,1045.830200 1736.489014,1041.669067 
	C1703.430908,1039.438599 1674.663330,1026.393311 1652.873047,1000.303772 
	C1651.915405,999.157227 1650.728760,998.201904 1648.332275,995.884277 
	C1648.332275,1008.100037 1648.332275,1018.568298 1648.332275,1029.670288 
	C1613.114868,1029.670288 1578.716309,1029.670288 1543.865967,1029.670288 
	C1543.865967,818.145508 1543.865967,607.037354 1543.865967,394.573792 
	C1574.347290,394.573792 1604.543335,394.573792 1635.698486,394.573914 
M1810.992798,855.878845 
	C1813.311157,825.334045 1805.487183,797.668030 1786.238281,773.811035 
	C1754.803955,734.852112 1701.304321,732.887451 1667.205933,768.991333 
	C1627.318604,811.224670 1628.601807,885.234314 1669.929932,926.088562 
	C1701.237061,957.036926 1748.035645,957.099365 1779.206421,926.102234 
	C1798.185547,907.228699 1807.786377,883.945618 1810.992798,855.878845 
z"/>
<path fill="#FBB713" opacity="1.000000" stroke="none" 
	d="
M2854.427002,652.215393 
	C2881.499268,647.918884 2907.051025,650.151978 2931.827637,659.943115 
	C2948.443604,666.509521 2963.255859,675.876465 2976.022461,688.422058 
	C2977.895264,690.262512 2979.834229,692.035645 2983.127197,695.149231 
	C2983.127197,683.586182 2983.127197,673.561707 2983.127197,662.854492 
	C3018.288330,662.854492 3052.344238,662.854492 3086.919434,662.854492 
	C3086.919434,785.084839 3086.919434,906.878479 3086.919434,1028.651611 
	C3079.948486,1030.730835 2999.790771,1031.379395 2983.967041,1029.399536 
	C2983.967041,1019.368164 2983.967041,1009.195435 2983.967041,997.376831 
	C2981.267578,999.261536 2979.637939,1000.015320 2978.519043,1001.237000 
	C2953.710693,1028.328979 2922.454834,1041.247437 2886.236328,1042.064575 
	C2826.166016,1043.419800 2780.469727,1017.128601 2747.862549,967.521118 
	C2726.152832,934.492615 2715.727783,897.673645 2713.483154,858.337524 
	C2711.115967,816.850525 2718.622314,777.405518 2738.049805,740.600220 
	C2760.505859,698.057129 2793.503174,667.841187 2840.914795,655.193237 
	C2845.089355,654.079590 2849.344971,653.268616 2854.427002,652.215393 
M2924.798096,745.679993 
	C2894.051514,739.053162 2868.048340,747.579895 2847.286865,770.959106 
	C2810.974121,811.849854 2810.585693,877.661682 2846.010742,919.942749 
	C2877.724609,957.794373 2930.689453,959.183472 2964.381348,923.047363 
	C2999.228516,885.672791 3003.711426,825.770264 2974.833984,782.416687 
	C2962.988037,764.632385 2947.352783,751.789307 2924.798096,745.679993 
z"/>
<path fill="#FDFDFD" opacity="1.000000" stroke="none" 
	d="
M1074.174194,682.067383 
	C1074.165039,797.676880 1074.156128,912.298706 1074.135620,1026.920532 
	C1074.135498,1027.566650 1073.970093,1028.212769 1073.781006,1029.596191 
	C1039.805420,1029.596191 1005.727722,1029.596191 970.505615,1029.596191 
	C970.505615,1019.202698 970.505615,1008.798279 970.505615,996.316223 
	C968.018799,998.748962 967.136475,999.532227 966.344604,1000.398132 
	C934.146484,1035.606689 893.443115,1046.589722 847.560303,1040.817871 
	C799.277649,1034.744263 762.744141,1009.314331 736.090271,969.290894 
	C689.383911,899.156433 687.855225,799.005371 732.545166,727.669617 
	C756.757812,689.020569 790.239807,662.573303 835.760315,653.553162 
	C886.011780,643.595581 930.087830,655.524658 966.824524,692.036438 
	C967.466248,692.674255 968.255371,693.163757 970.209473,694.679382 
	C970.209473,683.577209 970.209473,673.523071 970.209473,662.833984 
	C1005.091797,662.833984 1038.889038,662.833984 1074.174194,662.833984 
	C1074.174194,668.719116 1074.174194,674.899414 1074.174194,682.067383 
M835.926514,923.048828 
	C866.674011,956.878052 915.366455,957.377258 946.564453,927.964966 
	C991.329895,885.761658 993.375732,809.897217 948.022583,765.785583 
	C926.768250,745.113159 900.999329,738.797729 872.462646,746.389282 
	C851.192444,752.047852 835.761169,766.037292 824.288391,784.451904 
	C797.466125,827.503296 801.771606,882.315979 835.926514,923.048828 
z"/>
<path fill="#FCB713" opacity="1.000000" stroke="none" 
	d="
M2226.171875,1030.331543 
	C2220.899414,1030.331543 2216.599365,1030.331543 2210.937988,1030.331543 
	C2210.937988,1019.387390 2210.937988,1009.043213 2210.937988,998.699036 
	C2210.272217,998.502747 2209.606445,998.306396 2208.940674,998.110046 
	C2207.215820,999.927673 2205.505371,1001.759521 2203.763672,1003.560791 
	C2179.342041,1028.817871 2149.145264,1041.229126 2114.431396,1042.043335 
	C2049.615967,1043.563599 2002.050293,1013.855591 1969.990601,958.797424 
	C1945.642944,916.983765 1937.033325,871.346436 1941.464111,823.232361 
	C1945.608765,778.226990 1960.803467,737.599304 1990.860107,703.430115 
	C2023.936890,665.827393 2066.077881,648.048950 2116.009033,650.452026 
	C2148.660400,652.023499 2177.450928,664.268372 2201.611572,686.674500 
	C2204.024902,688.912659 2206.379395,691.214294 2209.549805,694.238708 
	C2212.753662,683.454712 2209.254883,672.764709 2211.861816,662.520142 
	C2245.844971,662.520142 2279.401611,662.520142 2313.645020,662.520142 
	C2313.645020,784.936218 2313.645020,906.997192 2313.645020,1030.331421 
	C2284.843506,1030.331421 2255.993896,1030.331421 2226.171875,1030.331543 
M2169.184326,940.450989 
	C2174.149414,937.112793 2179.542236,934.264587 2184.013672,930.360962 
	C2231.855957,888.594543 2234.866699,808.858093 2186.392578,764.001282 
	C2155.305176,735.233704 2109.059570,736.623413 2078.925537,766.373657 
	C2040.617310,804.193848 2036.537109,870.418701 2069.508301,915.097839 
	C2092.548828,946.319824 2131.499512,958.747742 2169.184326,940.450989 
z"/>
<path fill="#FBB713" opacity="1.000000" stroke="none" 
	d="
M2493.526855,819.452026 
	C2508.761719,796.777588 2523.598633,774.704041 2539.655518,750.815857 
	C2527.795166,750.728821 2517.691895,750.624146 2507.588623,750.588928 
	C2496.926025,750.551697 2486.263672,750.580627 2475.601074,750.580627 
	C2465.271973,750.580627 2454.942627,750.580627 2444.613525,750.580627 
	C2433.951172,750.580627 2423.288574,750.580627 2412.626221,750.580627 
	C2402.374756,750.580627 2392.123535,750.580566 2381.523926,750.580566 
	C2381.523926,720.683533 2381.523926,691.853333 2381.523926,662.594971 
	C2491.679443,662.594971 2601.223877,662.594971 2710.870361,662.594971 
	C2710.935547,662.695374 2711.135742,662.937256 2711.260254,663.213196 
	C2711.391846,663.505127 2711.608887,663.891235 2711.515381,664.128479 
	C2711.153809,665.046082 2710.782471,665.986755 2710.239258,666.802124 
	C2649.714355,757.731018 2589.173096,848.649170 2528.652344,939.580994 
	C2528.513672,939.789856 2528.666748,940.193115 2528.733643,941.445557 
	C2585.729736,941.445557 2642.790527,941.445557 2699.575928,941.445557 
	C2701.856689,949.399353 2702.545898,1009.511658 2700.835205,1028.689209 
	C2693.857178,1030.739502 2365.783691,1031.261719 2352.537109,1028.987305 
	C2399.627441,959.006226 2446.378174,889.529602 2493.526855,819.452026 
z"/>
<path fill="#FDFDFD" opacity="1.000000" stroke="none" 
	d="
M396.425659,865.335815 
	C393.800293,823.984619 400.204834,785.253784 419.840363,749.522888 
	C451.216217,692.427979 499.441895,659.666748 564.240051,651.582397 
	C599.237549,647.216064 632.538696,652.674927 664.155823,668.457642 
	C669.976807,671.363464 673.012817,674.644653 672.852234,682.039429 
	C672.259033,709.354919 672.616089,736.691101 672.615906,764.019470 
	C672.615906,766.940063 672.615967,769.860657 672.615967,774.424683 
	C667.373169,769.869385 663.499023,766.406799 659.523376,763.065125 
	C637.817993,744.821106 613.076416,736.348816 584.598877,739.652283 
	C563.814636,742.063354 546.397461,751.156494 532.595154,766.615417 
	C509.342194,792.659424 500.777161,823.780090 502.935303,858.099182 
	C503.947388,874.192993 508.153717,889.562439 515.749756,903.922058 
	C540.520203,950.748474 597.380310,967.762573 643.437744,941.564209 
	C653.452209,935.867737 662.286377,928.096069 671.914246,921.098389 
	C671.914246,953.355042 671.914246,986.085999 671.914246,1020.090759 
	C668.745178,1021.744080 664.789062,1024.087891 660.616089,1025.943970 
	C573.300842,1064.781372 458.093201,1036.743774 411.839966,928.054871 
	C403.420654,908.270630 398.836334,887.554199 396.425659,865.335815 
z"/>
<path fill="#FBB613" opacity="1.000000" stroke="none" 
	d="
M3241.683350,987.999695 
	C3241.683350,1002.279053 3241.683350,1015.558533 3241.683350,1029.582397 
	C3206.601807,1029.582397 3172.137207,1029.582397 3137.592529,1029.582397 
	C3135.731689,1022.790710 3134.892822,683.153259 3136.835205,662.908386 
	C3171.213379,662.908386 3205.676514,662.908386 3241.098877,662.908386 
	C3241.098877,674.489868 3241.098877,686.333984 3241.098877,698.178101 
	C3241.552002,698.641357 3242.005127,699.104675 3242.458008,699.567932 
	C3277.503906,652.473389 3322.500977,639.820312 3377.947021,658.879822 
	C3373.736572,691.266357 3369.591064,723.153381 3365.326172,755.960022 
	C3362.592041,754.678650 3360.280273,753.689270 3358.052979,752.536926 
	C3335.680664,740.962219 3312.602295,740.692627 3289.344238,749.003784 
	C3273.902100,754.522034 3263.073730,765.586731 3255.716553,780.142334 
	C3245.868896,799.624084 3242.517334,820.700623 3242.205566,842.078613 
	C3241.535645,888.046204 3241.800781,934.027405 3241.684082,980.002991 
	C3241.678223,982.335266 3241.683350,984.667480 3241.683350,987.999695 
z"/>
<path fill="#020202" opacity="1.000000" stroke="none" 
	d="
M1386.056396,881.898315 
	C1380.730103,897.999878 1373.126587,911.883301 1362.018311,923.753479 
	C1330.701538,957.218201 1281.284790,957.817688 1249.235596,925.094543 
	C1209.052979,884.066956 1208.010254,811.883362 1246.989624,769.581116 
	C1279.455688,734.347168 1331.715088,734.056458 1363.215820,770.121216 
	C1391.430908,802.424316 1398.329590,840.020569 1386.056396,881.898315 
z"/>
<path fill="#020100" opacity="1.000000" stroke="none" 
	d="
M1810.854614,856.758667 
	C1807.786377,883.945618 1798.185547,907.228699 1779.206421,926.102234 
	C1748.035645,957.099365 1701.237061,957.036926 1669.929932,926.088562 
	C1628.601807,885.234314 1627.318604,811.224670 1667.205933,768.991333 
	C1701.304321,732.887451 1754.803955,734.852112 1786.238281,773.811035 
	C1805.487183,797.668030 1813.311157,825.334045 1810.854614,856.758667 
z"/>
<path fill="#020100" opacity="1.000000" stroke="none" 
	d="
M2925.623047,745.836792 
	C2947.352783,751.789307 2962.988037,764.632385 2974.833984,782.416687 
	C3003.711426,825.770264 2999.228516,885.672791 2964.381348,923.047363 
	C2930.689453,959.183472 2877.724609,957.794373 2846.010742,919.942749 
	C2810.585693,877.661682 2810.974121,811.849854 2847.286865,770.959106 
	C2868.048340,747.579895 2894.051514,739.053162 2925.623047,745.836792 
z"/>
<path fill="#020202" opacity="1.000000" stroke="none" 
	d="
M835.436951,922.528687 
	C801.771606,882.315979 797.466125,827.503296 824.288391,784.451904 
	C835.761169,766.037292 851.192444,752.047852 872.462646,746.389282 
	C900.999329,738.797729 926.768250,745.113159 948.022583,765.785583 
	C993.375732,809.897217 991.329895,885.761658 946.564453,927.964966 
	C915.366455,957.377258 866.674011,956.878052 835.436951,922.528687 
z"/>
<path fill="#020100" opacity="1.000000" stroke="none" 
	d="
M2168.534912,940.833862 
	C2131.499512,958.747742 2092.548828,946.319824 2069.508301,915.097839 
	C2036.537109,870.418701 2040.617310,804.193848 2078.925537,766.373657 
	C2109.059570,736.623413 2155.305176,735.233704 2186.392578,764.001282 
	C2234.866699,808.858093 2231.855957,888.594543 2184.013672,930.360962 
	C2179.542236,934.264587 2174.149414,937.112793 2168.534912,940.833862 
z"/>
</svg>